<?xml version="1.0" ?><!DOCTYPE svg  PUBLIC '-//W3C//DTD SVG 1.1//EN'  'http://www.w3.org/Graphics/SVG/1.1/DTD/svg11.dtd' [
        <!ENTITY stroke_color "#010101">
        <!ENTITY fill_color "#FFFFFF">
]>

<svg enable-background="new 0 0 55 55" height="55px" width="55px" x="0px" y = "0px" viewBox="-6,0,55,55" xmlns="http://www.w3.org/2000/svg" version="1.1">

  <g display="block" id="activity-lambda">

    <path fill="&fill_color;" stroke="&stroke_color;" stroke-width="3.5" d="M40.844,47.969 L39.016,52.922 C37.234,52.922,35.49,52.458,33.781,51.531 C32.073,50.604,30.62,48.651,29.422,45.672 L22.172,28.094 L8.922,52.5 L2.453,52.5 L19.578,21.906 C16.807,15.188,15.211,11.365,14.789,10.438 C14.367,9.51001,13.758,8.65399,12.961,7.867 C12.164,7.08099,11.182,6.68799,10.016,6.68799 C8.16101,6.68799,6.073,7.099,3.75,7.922 L2.453,3.53101 C4.87,2.46899,7.48401,1.93799,10.297,1.93799 C13.297,1.93799,15.482,2.495,16.852,3.60901 C18.221,4.724,19.307,6.229,20.109,8.125 L34.547,43.141 C35.859,46.234,37.958,47.844,40.844,47.969 Z">
    </path>

  </g>
</svg>
